
<svg xmlns="http://www.w3.org/2000/svg" version="1.1" xmlns:xlink="http://www.w3.org/1999/xlink" preserveAspectRatio="none" x="0px" y="0px" width="169px" height="159px" viewBox="0 0 169 159">
<defs>
<g id="Layer0_0_FILL">
<path fill="#00E8E2" stroke="none" d="
M 106.25 126.65
Q 106.04921875 127.5453125 105.8 128.55 106.65703125 127.378125 107.45 126.15 106.8740234375 126.4099609375 106.25 126.65
M 116.35 86.5
Q 115.8943359375 86.37734375 115.4 86.25 111.7509765625 85.26328125 107 84 106.75 83.95 106.55 83.9 105.75 83.7 104.8 83.45 104.462890625 83.3724609375 104.1 83.3 103.6880859375 84.5568359375 103.45 85.55 104.1927734375 85.0873046875 105 84.65 105.25 86.5 105.7 89.25 106.1119140625 91.688671875 106.4 93.45 106.96640625 97.094921875 107 98 107 99.15 107.25 102.15 107.5 105.15 107.5 107
L 107.5 110.75
Q 107.5 119.9 107.4 120.8 107.313671875 121.4466796875 106.95 123.15 109.4171875 121.85234375 111.05 120.6 112.2353515625 118.680078125 113.35 116.7
L 113 116.35
Q 112.6 115.9 112.6 115.5 112.6 113.3099609375 115.2 113.5 119.2521484375 106.3408203125 122.75 98.6 122.4880859375 95.3609375 122.1 91.75 121.9603515625 90.6478515625 121.85 89.65 121.225390625 89.2853515625 120.5 88.85 118.284765625 87.60703125 116.35 86.5
M 32.75 46.7
Q 32.7009765625 46.7869140625 32.65 46.85 32.7130859375 46.925390625 32.75 47
L 32.5 47
Q 32.5 48.6791015625 32.25 52.6 32.1642578125 54.5373046875 32 57 32 60.18671875 32.5 63.4 33.01171875 66.5625 34 69.75 34.55 71.55 35.75 74.5 25.7 67 23.75 67 22.3 67 16.5 74.3 12.4 79.4 9.95 83.55 8.8 85.35 8 87 4.55 93.95 2.75 98.65 0.8 103.85 0 108.5
L 0 109
Q 1.05 108.5 6.9 105.3 12.8 102.2 15.5 101.5 18.65 100.6 20.3 100.15 19.3 102.2 18.35 104.7 15 113.6 15 119.25
L 15 122
Q 17.1041015625 120.4677734375 19.9 119 20.76328125 117.0548828125 22 114.4 26.55 104.55 31.75 97.75 34.1458984375 94.5939453125 35.95 92.3 29.6431640625 93.248046875 24.9 94.35 15.9255859375 96.5212890625 11.3 100.45 11.286328125 100.6078125 11.25 100.75
L 11 100.75
Q 11.1609375 100.6046875 11.3 100.45 12.7162109375 95.57421875 19.95 86.35 26.65 77.75 27.35 77.75 31.3 77.75 39.15 79.9 43.98671875 81.2216796875 47.5 82.65 44.7701171875 77.8685546875 41.7 70.5 37.8421875 61.247265625 35.65 52.8 34.6703125 48.9640625 34 45.3 33.4693359375 44.791015625 32.85 44.85 33.1404296875 45.641015625 33.5 46.45 33.337890625 46.429296875 33.15 46.45 33.1388671875 46.3619140625 33.1 46.25
L 32.65 46.25
Q 32.6939453125 46.4900390625 32.75 46.7 Z"/>

<path fill="#03B6DC" stroke="none" d="
M 114 117.35
L 113.35 116.7
Q 112.2353515625 118.680078125 111.05 120.6 113.2478515625 118.9138671875 114 117.35
M 121.75 119
Q 122.236328125 119 123.1 119.35 123.25 114.978125 123.25 110 123.25 104.9978515625 122.75 98.6 119.2521484375 106.3408203125 115.2 113.5 115.4744140625 113.55625 115.75 113.6 118.85 114.1 118.85 116.75 118.85 121.6275390625 107.45 126.15 106.65703125 127.378125 105.8 128.55 105.7158203125 129.071875 105.6 129.6 111.42890625 125.7140625 115.15 123.25 121.5916015625 119 121.75 119
M 141.35 98.4
Q 139.128125 96.0681640625 136.1 94.1 136.7091796875 104.209765625 136.5 123.5 136.5 126.2798828125 136.5 128.6 138.7458984375 130.44765625 140.45 132.1 141.35 127.4 141.7 125 141.85 124.1 142 123.25 142.9298828125 116.833984375 143 112.4 143 112.07265625 143 111.75 143 104.2 142.1 99.2 142 98.7 141.9 98.25 141.85 98.05 141.8 97.85 141.55 98.1 141.35 98.4
M 116.35 86.5
Q 118.284765625 87.60703125 120.5 88.85 121.225390625 89.2853515625 121.85 89.65 121.73203125 88.7640625 121.6 87.95 119.4013671875 87.337890625 116.35 86.5
M 94.4 83.2
Q 97.29609375 82.698046875 99.85 88.2 101.4109375 86.9525390625 102.8 86 103.12734375 85.7708984375 103.45 85.55 103.6880859375 84.5568359375 104.1 83.3 98.3564453125 81.994921875 85.85 79.55 79.946484375 78.4021484375 75.55 77.6 72.3880859375 76.1734375 68.65 74 62.85 70.65 59.95 68.95 54.9 65.95 52.3 63.85 50.6119140625 62.56015625 49.25 61.5 48.0615234375 60.6005859375 47.1 59.85 46.865625 59.6361328125 46.6 59.4 42.25 55.55 41.4 54.75 40.6064453125 54.00390625 39.85 53.25 39.7072265625 53.036328125 39.55 52.8 38.07421875 50.9724609375 37.05 49.8 36.7607421875 49.4603515625 36.5 49.15 36.237109375 48.81171875 36 48.5 35.9255859375 48.40625 35.85 48.3 35.51875 47.7146484375 34.75 46.3 34.4013671875 45.6642578125 34 45.3 34.6703125 48.9640625 35.65 52.8 37.8421875 61.247265625 41.7 70.5 44.7701171875 77.8685546875 47.5 82.65 43.98671875 81.2216796875 39.15 79.9 31.3 77.75 27.35 77.75 26.65 77.75 19.95 86.35 12.7162109375 95.57421875 11.3 100.45 15.9255859375 96.5212890625 24.9 94.35 29.6431640625 93.248046875 35.95 92.3 34.1458984375 94.5939453125 31.75 97.75 26.55 104.55 22 114.4 20.76328125 117.0548828125 19.9 119 24.0314453125 116.88125 29.65 114.9 33.4380859375 113.554296875 37.5 114.05
L 37.55 114.05
Q 37.52578125 114.0140625 37.5 113.95
L 37.35 113.5
Q 36.725390625 111.7087890625 36.25 110 36.1326171875 109.4095703125 36 108.8 35.7623046875 107.778125 35.4 107.25 35.264453125 106.7935546875 35.15 106.45 35.1 106.3 35.05 106.15 36.45 105.15 38.45 104.25 40.35 103.4 46.75 101 49.8 99.85 55.95 98.25 57.137109375 97.938671875 58.25 97.65 57.6 94.396484375 57.6 94.35 57.6 86.95 61.7 88.05 65.95 89.15 69.1 98.6 69.780859375 100.2533203125 70.9 106.8 75.4978515625 110.5912109375 82.3 115.5 83.5 109.4 88.4 101.4 90.246875 98.3658203125 91.85 96.15 91 90.35234375 91 89.5 91 87.1 91.95 85.3 92.95 83.45 94.4 83.2
M 36.55 51.5
Q 37.1482421875 52.23515625 37.65 52.8 40.0416015625 55.6634765625 40.35 56 40.7251953125 56.4212890625 41.1 56.8 39.187109375 54.84140625 37.5 52.8 37.0041015625 52.2259765625 36.5 51.6 36.1025390625 51.09375 35.7 50.55 35.482421875 50.2677734375 35.25 49.95 35.4896484375 50.248046875 35.7 50.5 36.1490234375 51.0427734375 36.55 51.5
M 52.5 89.5
Q 52.3744140625 89.3796875 52.25 89.25
L 52.5 89.25 52.5 89.5
M 65.8 74.35
Q 66.01171875 74.490234375 66.2 74.6 68.1150390625 75.7193359375 69.85 76.65 69.56640625 76.6392578125 69.3 76.6 67.6810546875 75.6037109375 65.8 74.35 Z"/>

<path fill="#FDBD97" stroke="none" d="
M 123.1 119.35
Q 122.236328125 119 121.75 119 121.5916015625 119 115.15 123.25 114.1962890625 125.944921875 112.55 129.55 112.090234375 130.5580078125 111.65 131.45 114.2466796875 130.569140625 117 129.5 120.17265625 128.245703125 122.7 127.05 122.961328125 123.47578125 123.1 119.35
M 58.25 97.65
Q 57.137109375 97.938671875 55.95 98.25 49.8 99.85 46.75 101 40.35 103.4 38.45 104.25 36.45 105.15 35.05 106.15 35.1 106.3 35.15 106.45 35.264453125 106.7935546875 35.4 107.25 35.7623046875 107.778125 36 108.8 36.1326171875 109.4095703125 36.25 110 36.609765625 111.0388671875 37 112.3 37 112.4 37.05 112.55 37.126953125 112.8001953125 37.2 113.05 45.1392578125 108.6958984375 56.65 106.15 58.313671875 105.7861328125 59.9 105.45 58.8546875 100.4044921875 58.25 97.65
M 105 84.65
Q 104.1927734375 85.0873046875 103.45 85.55 103.12734375 85.7708984375 102.8 86 101.4109375 86.9525390625 99.85 88.2 100.621484375 89.8482421875 101.35 92 101.4736328125 92.5353515625 102.65 97.35 104.5697265625 95.2595703125 106.4 93.45 106.1119140625 91.688671875 105.7 89.25 105.25 86.5 105 84.65
M 91.95 96.85
Q 91.899609375 96.5083984375 91.85 96.15 90.246875 98.3658203125 88.4 101.4 83.5 109.4 82.3 115.5 75.4978515625 110.5912109375 70.9 106.8 70.9669921875 107.010546875 71 107.2 71.646875 110.8220703125 71.95 113.25 73.5716796875 114.2859375 75 115 85 119.95 89.25 121 90.2595703125 115.1947265625 93.9 108.95 93.50234375 106.59609375 93.25 105.25 92.85 103.05 91.95 96.85
M 155.75 96
Q 155.66484375 95.0693359375 155.6 94.2 154.719921875 97.409765625 153.5 101.5 149.1 116.25 147.5 116.25 146.56875 116.25 143 112.4 142.9298828125 116.833984375 142 123.25 143.15 124.15 144.8 125.15 147.35 126.7 151.5 129 153.05 123.75 154.1 119.95 154.3 119.1 154.5 118.35 156.5 110.4 156.5 105.5 156.5 104.73359375 156.25 101.55 156.0578125 99.365234375 155.75 96 Z"/>

<path fill="#000000" stroke="none" d="
M 74.35 132.4
Q 74.75 132.7 74.75 132.85 89.75 132.3 103.85 127.5 105.096875 127.071875 106.25 126.65 106.8740234375 126.4099609375 107.45 126.15 118.85 121.6275390625 118.85 116.75 118.85 114.1 115.75 113.6 115.4744140625 113.55625 115.2 113.5 112.6 113.3099609375 112.6 115.5 112.6 115.9 113 116.35
L 113.35 116.7 114 117.35
Q 113.2478515625 118.9138671875 111.05 120.6 109.4171875 121.85234375 106.95 123.15 104.422265625 124.5509765625 101 126 97 127.6 86.45 129.95 76.75 132.1 75.1 132.1 74.4 132.1 74.15 132 73.9 131.85 73.75 131.85 73.85 132.05 74.35 132.4
M 57.6 94.35
Q 57.6 94.396484375 58.25 97.65 58.8546875 100.4044921875 59.9 105.45 60.30546875 107.28984375 60.75 109.4 64.65 124.25 68.5 124.25 72.25 124.25 72.25 116.8 72.25 115.5453125 71.95 113.25 71.646875 110.8220703125 71 107.2 70.9669921875 107.010546875 70.9 106.8 69.780859375 100.2533203125 69.1 98.6 65.95 89.15 61.7 88.05 57.6 86.95 57.6 94.35
M 99.85 88.2
Q 97.29609375 82.698046875 94.4 83.2 92.95 83.45 91.95 85.3 91 87.1 91 89.5 91 90.35234375 91.85 96.15 91.899609375 96.5083984375 91.95 96.85 92.85 103.05 93.25 105.25 93.50234375 106.59609375 93.9 108.95 94.2328125 110.81875 94.65 113.3 96 118.3 99.5 121.25
L 101 121.25
Q 102.65 120.05 103.9 114.7 104.85 110.5 104.85 108.65 104.85 106.75 103.2 99.65 102.9 98.4150390625 102.65 97.35 101.4736328125 92.5353515625 101.35 92 100.621484375 89.8482421875 99.85 88.2 Z"/>

<path fill="#FFE6CE" stroke="none" d="
M 107 98
Q 106.96640625 97.094921875 106.4 93.45 104.5697265625 95.2595703125 102.65 97.35 102.9 98.4150390625 103.2 99.65 104.85 106.75 104.85 108.65 104.85 110.5 103.9 114.7 102.65 120.05 101 121.25
L 99.5 121.25
Q 96 118.3 94.65 113.3 94.2328125 110.81875 93.9 108.95 90.2595703125 115.1947265625 89.25 121 85 119.95 75 115 73.5716796875 114.2859375 71.95 113.25 72.25 115.5453125 72.25 116.8 72.25 124.25 68.5 124.25 64.65 124.25 60.75 109.4 60.30546875 107.28984375 59.9 105.45 58.313671875 105.7861328125 56.65 106.15 45.1392578125 108.6958984375 37.2 113.05 37.2763671875 113.290234375 37.35 113.5
L 37.5 113.95
Q 37.52578125 114.0140625 37.55 114.05
L 37.5 114.05
Q 37.87265625 115.087109375 38.2 115.95 38.95 117.95 39.5 119 35.4 121.45 33.6 122.7 30.5 124.8 30.5 127.75 30.5 135.25 44 139 52.95 141.5 61.75 141.5 69.95 141.5 81 139.4 87.4 138.15 100 135 105.373828125 133.691796875 111.65 131.45 112.090234375 130.5580078125 112.55 129.55 114.1962890625 125.944921875 115.15 123.25 111.42890625 125.7140625 105.6 129.6 105.55 129.8 105.5 130
L 105 130
Q 105.0576171875 129.9615234375 105.1 129.9 105.3576171875 129.7615234375 105.6 129.6 105.7158203125 129.071875 105.8 128.55 106.04921875 127.5453125 106.25 126.65 105.096875 127.071875 103.85 127.5 89.75 132.3 74.75 132.85 74.75 132.7 74.35 132.4 73.85 132.05 73.75 131.85 73.9 131.85 74.15 132 74.4 132.1 75.1 132.1 76.75 132.1 86.45 129.95 97 127.6 101 126 104.422265625 124.5509765625 106.95 123.15 107.313671875 121.4466796875 107.4 120.8 107.5 119.9 107.5 110.75
L 107.5 107
Q 107.5 105.15 107.25 102.15 107 99.15 107 98
M 155.6 94.2
Q 155 87.7091796875 155 87
L 154 87
Q 150.3 90.1 147.45 92.55 147.3328125 92.6517578125 147.2 92.75 143.9724609375 95.5810546875 141.8 97.85 141.85 98.05 141.9 98.25 142 98.7 142.1 99.2 143 104.2 143 111.75 143 112.07265625 143 112.4 146.56875 116.25 147.5 116.25 149.1 116.25 153.5 101.5 154.719921875 97.409765625 155.6 94.2 Z"/>

<path fill="#3D4756" stroke="none" d="
M 121.4 85.25
Q 121.45 85.65 121.4 86.05 121.49921875 86.9021484375 121.6 87.95 121.73203125 88.7640625 121.85 89.65 121.9603515625 90.6478515625 122.1 91.75 122.4880859375 95.3609375 122.75 98.6 123.25 104.9978515625 123.25 110 123.25 114.978125 123.1 119.35 122.961328125 123.47578125 122.7 127.05 122.49375 129.708984375 122.2 132.05 123.70546875 132 126.4 132 129.45 132 133.25 132.85 135.1853515625 133.269921875 136.45 133.8 136.4890625 131.58515625 136.5 128.6 136.5 126.2798828125 136.5 123.5 136.7091796875 104.209765625 136.1 94.1 135.996875 92.123046875 135.85 90.5 133.45 89.1 129.9 87.7 125.05 85.8 121.4 85.25
M 44.5 143
L 44.5 145.3
Q 46.13828125 144.710546875 48.2 144.25 52.4 143.25 55.75 143.25 56.584375 143.25 58.25 143.6 58.21015625 142.6646484375 58.15 141.55
L 58.15 141.5
Q 57.9955078125 141.5 57.85 141.5 53.75 141.5 48.8 140.4 46.5201171875 139.8837890625 44.7 139.25 44.6501953125 141.4974609375 44.5 143 Z"/>

<path fill="#FAAE12" stroke="none" d="
M 66.2 74.6
Q 66.01171875 74.490234375 65.8 74.35 67.6810546875 75.6037109375 69.3 76.6 69.56640625 76.6392578125 69.85 76.65 68.1150390625 75.7193359375 66.2 74.6
M 36.55 51.5
Q 36.1490234375 51.0427734375 35.7 50.5
L 35.7 50.55
Q 36.1025390625 51.09375 36.5 51.6 36.540625 51.5703125 36.55 51.5
M 52.9 14.75
Q 49.3919921875 16.2736328125 46.15 18.25 40.7150390625 28.2390625 37.85 39.45 36.6830078125 44.015625 36 48.5 36.237109375 48.81171875 36.5 49.15 36.7607421875 49.4603515625 37.05 49.8 38.871875 43.947265625 41.95 36.5 47.2845703125 23.53984375 53.05 14.55 52.9736328125 14.6677734375 52.9 14.75
M 124.75 12.6
Q 124.0294921875 11.4970703125 123.25 10.25 120.45 5.9 118.25 2.65 117.750390625 2.5201171875 117.25 2.4 116.6513671875 3.351171875 115.95 4.65 112.3 11.75 110 16 105.65 24.25 103.85 27.85 100.3 35.05 98.75 39.5 95.9421875 47.4912109375 94.25 53.55 95.866796875 50.1021484375 97.95 45.9 107.95 25.8 114.5 21.5 115.75 20.7 119.35 17.35 123.25 13.75 124.25 13 124.499609375 12.80859375 124.75 12.6 Z"/>

<path fill="#00CCCC" stroke="none" d="
M 52.25 89.25
Q 52.3744140625 89.3796875 52.5 89.5
L 52.5 89.25 52.25 89.25
M 11.25 100.75
Q 11.286328125 100.6078125 11.3 100.45 11.1609375 100.6046875 11 100.75
L 11.25 100.75 Z"/>

<path fill="#FFE73C" stroke="none" d="
M 35.7 50.55
L 35.7 50.5
Q 35.4896484375 50.248046875 35.25 49.95 35.482421875 50.2677734375 35.7 50.55
M 37.65 52.8
Q 37.1482421875 52.23515625 36.55 51.5 36.540625 51.5703125 36.5 51.6 37.0041015625 52.2259765625 37.5 52.8 39.187109375 54.84140625 41.1 56.8 40.7251953125 56.4212890625 40.35 56 40.0416015625 55.6634765625 37.65 52.8 Z"/>

<path fill="#F28306" stroke="none" d="
M 162 46.4
Q 162 46.696484375 162 47 162 62.25 153.05 71 144.55 79.25 131 79.25 128.9236328125 79.25 123.45 78.35 115.5376953125 74.8234375 111.5 73 103.6873046875 69.3974609375 89.05 66.25 86.83125 65.768359375 84.45 65.3 65.3 61.5 50.85 61.5 50.0509765625 61.5 49.25 61.5 50.6119140625 62.56015625 52.3 63.85 54.9 65.95 59.95 68.95 62.85 70.65 68.65 74 72.3880859375 76.1734375 75.55 77.6 79.946484375 78.4021484375 85.85 79.55 98.3564453125 81.994921875 104.1 83.3 104.462890625 83.3724609375 104.8 83.45 105.75 83.7 106.55 83.9 106.75 83.95 107 84 111.7509765625 85.26328125 115.4 86.25 115.8943359375 86.37734375 116.35 86.5 119.4013671875 87.337890625 121.6 87.95 121.49921875 86.9021484375 121.4 86.05 121.45 85.65 121.4 85.25 125.05 85.8 129.9 87.7 133.45 89.1 135.85 90.5 135.996875 92.123046875 136.1 94.1 139.128125 96.0681640625 141.35 98.4 141.55 98.1 141.8 97.85 143.9724609375 95.5810546875 147.2 92.75 147.3328125 92.6517578125 147.45 92.55 150.3 90.1 154 87
L 155 87
Q 155 87.7091796875 155.6 94.2 155.66484375 95.0693359375 155.75 96 156.0578125 99.365234375 156.25 101.55 156.5 104.73359375 156.5 105.5 156.5 110.4 154.5 118.35 154.3 119.1 154.1 119.95 156.65 119 160.05 117.3 164.5083984375 115.0345703125 166.85 113.85 169.396484375 112.5517578125 169.5 112.5 169.35 108.4 166.4 102.55 165.65 101.05 162 94.85 163.95 88.1 164.95 84.1 167 76 167 69.75 167 57.27109375 162 46.4
M 34 69.75
Q 33.01171875 66.5625 32.5 63.4 31.326953125 63.487109375 30.25 63.5 25.85 63.5 15.6 68.45 8.83828125 71.71875 3.8 75.1 5.045703125 77.225 7.4 80.3 8.75 82.1 9.95 83.55 12.4 79.4 16.5 74.3 22.3 67 23.75 67 25.7 67 35.75 74.5 34.55 71.55 34 69.75 Z"/>

<path fill="#64758C" stroke="none" d="
M 136.45 133.8
Q 135.1853515625 133.269921875 133.25 132.85 129.45 132 126.4 132 123.70546875 132 122.2 132.05 120.773046875 132.1259765625 120.5 132.25 119.25 132.85 119.25 137 119.25 144.4 120 147 121.45 147 130.3 147.85 135.1828125 148.341015625 137.6 148.65 137.85 146.247265625 138.5 142.25
L 138.5 135.05
Q 137.862890625 134.3765625 136.45 133.8
M 44.5 145.3
Q 43.3423828125 145.71171875 42.4 146.15 42.338671875 147.170703125 42.25 148.5 42.25 154.5 45 159.75 47.55 157.9 53.85 156.75 58.0611328125 155.9544921875 61.95 155.75 61.9125 155.3962890625 61.85 155 60.76015625 148.387109375 60.1 144.05 59.083984375 143.7857421875 58.25 143.6 56.584375 143.25 55.75 143.25 52.4 143.25 48.2 144.25 46.13828125 144.710546875 44.5 145.3 Z"/>

<path fill="#FFEB59" stroke="none" d="
M 34 45.3
Q 34.4013671875 45.6642578125 34.75 46.3 35.51875 47.7146484375 35.85 48.3 35.9255859375 48.40625 36 48.5 36.6830078125 44.015625 37.85 39.45 40.7150390625 28.2390625 46.15 18.25 36.79296875 24.0671875 29.8 33.85 24.6078125 41.093359375 20.8 50.3 18.6873046875 55.50234375 17 61.3 14.6 62.75 10.8 64.6 2.5 68.65 2.5 71.75 2.5 72.8669921875 3.8 75.1 8.83828125 71.71875 15.6 68.45 25.85 63.5 30.25 63.5 31.326953125 63.487109375 32.5 63.4 32 60.18671875 32 57 32.1642578125 54.5373046875 32.25 52.6 32.5 48.6791015625 32.5 47
L 32.75 47
Q 32.7130859375 46.925390625 32.65 46.85 32.7009765625 46.7869140625 32.75 46.7 32.6939453125 46.4900390625 32.65 46.25
L 33.1 46.25
Q 33.1388671875 46.3619140625 33.15 46.45 33.337890625 46.429296875 33.5 46.45 33.1404296875 45.641015625 32.85 44.85 33.4693359375 44.791015625 34 45.3
M 37.5 28.35
Q 38.25 28.7 38.35 28.75 38.75 29.1 38.75 29.9 38.75 30.55 34.05 36.3 29 42.55 27.75 47.35
L 27.25 47.35
Q 27.05 47.2 27.05 47.15 27 47.05 27 46.25 27 37.85 37.5 28.35
M 162 47
Q 162 46.696484375 162 46.4 158.6607421875 39.1408203125 153.1 32.6 141.75 19.3 125.2 13.2 124.9904296875 12.9021484375 124.75 12.6 124.499609375 12.80859375 124.25 13 123.25 13.75 119.35 17.35 115.75 20.7 114.5 21.5 107.95 25.8 97.95 45.9 95.866796875 50.1021484375 94.25 53.55 95.9421875 47.4912109375 98.75 39.5 100.3 35.05 103.85 27.85 105.65 24.25 110 16 112.3 11.75 115.95 4.65 116.6513671875 3.351171875 117.25 2.4 116.1486328125 2.1306640625 115 1.9 106.09609375 0 95.5 0 87.05 0 72.65 3.2 66.8 4.5 62.45 5.9 57.2900390625 9.8806640625 53.05 14.55 47.2845703125 23.53984375 41.95 36.5 38.871875 43.947265625 37.05 49.8 38.07421875 50.9724609375 39.55 52.8 39.7072265625 53.036328125 39.85 53.25 40.6064453125 54.00390625 41.4 54.75 42.25 55.55 46.6 59.4 46.865625 59.6361328125 47.1 59.85 48.0615234375 60.6005859375 49.25 61.5 50.0509765625 61.5 50.85 61.5 65.3 61.5 84.45 65.3 86.83125 65.768359375 89.05 66.25 103.6873046875 69.3974609375 111.5 73 115.5376953125 74.8234375 123.45 78.35 128.9236328125 79.25 131 79.25 144.55 79.25 153.05 71 162 62.25 162 47
M 130.75 22.5
Q 131.2 23.05 132.9 24.7 134.45 26.35 134.75 27.5
L 134.5 28.6
Q 134 28.75 133.25 28.65 132.2 28.5 131.75 28.5 124.65 28.5 116.3 33.35 111.96640625 35.837109375 108.9 38.4 108.4330078125 39.078125 108 39.75 107.744140625 39.6646484375 107.6 39.55 107.58515625 39.61484375 107.55 39.65 107.0955078125 40.7365234375 106.75 41.85
L 106.25 41.85
Q 106.05 41.7 106.05 41.65 106 41.55 106 40.75 106 38.8 108.25 34.75 110.55 30.65 113.7 27.05 117.3544921875 22.908203125 120.25 21.45 121.5638671875 20.1978515625 125.25 20.1 130.0974609375 19.9701171875 130.75 22.5
M 81.45 40.4
Q 81.290625 41.0943359375 81.1 41.85 80.2283203125 41.7349609375 79.35 41.65 77.627734375 41.5 75.95 41.5 74.35 41.5 70.8 43 70.55 43.1 70.3 43.2 69.8078125 44.9578125 69.35 46.55 68.8984375 48.3796875 68.5 50
L 68.5 52.9
Q 68.1 52.75 67.15 52.75 63.35 52.75 61.75 53 59.6 53.35 57.1 54.1
L 55 54.75 54.5 54.75
Q 54.8326171875 52.8447265625 55.2 51 55.4734375 49.8158203125 55.75 48.65 56.45 45.9 57.1 44.2 55.4 44.3 54.75 44.5 52.45 45.35 50.2 46.7 48.4 47.8 47.75 48.5
L 47.75 47.85
Q 47.75 47.45 48.75 42.9 50.1 36.9 50.5 35 50.65 35 53.6 34.5 56.35 34 57.5 34 58.85 34 59.65 34.15 59.987890625 31.784375 60.9 28.95 58.546875 30 56 30 54.15 30 53.25 29 52.25 27.9 52.25 25.35 52.25 23.15 53.3 20.45 54.4 17.45 56.25 15.5 60.05 11.45 61 10.55 62.6720703125 8.941015625 63.7 8.35 64.3251953125 8.0103515625 64.7 8 66.378125 7.5 68 7.5 70.05 7.5 71.5 8.5 73.25 9.7 73.25 11.85 73.25 15.3544921875 69.3 21.15 69.60625 21.1119140625 69.9 21.05 73.4 20.35 76.1 19.9 75.85 20.4 75.6 20.9 72.65 27.05 72.5 30.5 76.2 29 81.95 29 83.75 29 84.8 29 83.9 31.5 82.85 35 82.54765625 36.123046875 81.45 40.4
M 111.6 32.9
Q 111.52578125 33.0251953125 111.4 33.15 111.4912109375 33.08671875 111.55 33 111.591796875 32.9611328125 111.6 32.9 Z"/>

<path fill="#F9FFB0" stroke="none" d="
M 38.35 28.75
Q 38.25 28.7 37.5 28.35 27 37.85 27 46.25 27 47.05 27.05 47.15 27.05 47.2 27.25 47.35
L 27.75 47.35
Q 29 42.55 34.05 36.3 38.75 30.55 38.75 29.9 38.75 29.1 38.35 28.75
M 73.25 11.85
Q 73.25 9.7 71.5 8.5 70.05 7.5 68 7.5 66.378125 7.5 64.7 8 64.3251953125 8.0103515625 63.7 8.35 62.6720703125 8.941015625 61 10.55 60.05 11.45 56.25 15.5 54.4 17.45 53.3 20.45 52.25 23.15 52.25 25.35 52.25 27.9 53.25 29 54.15 30 56 30 58.546875 30 60.9 28.95 61.3328125 27.6423828125 61.9 26.2 62.7 24.15 63.5 22.65 65.8990234375 21.9119140625 69.3 21.15 73.25 15.3544921875 73.25 11.85
M 132.9 24.7
Q 131.2 23.05 130.75 22.5 130.0974609375 19.9701171875 125.25 20.1 121.5638671875 20.1978515625 120.25 21.45 117.3544921875 22.908203125 113.7 27.05 110.55 30.65 108.25 34.75 106 38.8 106 40.75 106 41.55 106.05 41.65 106.05 41.7 106.25 41.85
L 106.75 41.85
Q 107.0955078125 40.7365234375 107.55 39.65 107.58515625 39.61484375 107.6 39.55 107.744140625 39.6646484375 108 39.75 108.4330078125 39.078125 108.9 38.4 111.96640625 35.837109375 116.3 33.35 124.65 28.5 131.75 28.5 132.2 28.5 133.25 28.65 134 28.75 134.5 28.6
L 134.75 27.5
Q 134.45 26.35 132.9 24.7
M 111.4 33.15
Q 111.52578125 33.0251953125 111.6 32.9 111.591796875 32.9611328125 111.55 33 111.4912109375 33.08671875 111.4 33.15 Z"/>

<path fill="#FF6262" stroke="none" d="
M 68.75 22
Q 69.04453125 21.58125 69.3 21.15 65.8990234375 21.9119140625 63.5 22.65 62.7 24.15 61.9 26.2 61.3328125 27.6423828125 60.9 28.95 65.1447265625 27.150390625 68.75 22 Z"/>

<path fill="#FF0000" stroke="none" d="
M 81.1 41.85
Q 81.290625 41.0943359375 81.45 40.4 82.54765625 36.123046875 82.85 35 83.9 31.5 84.8 29 83.75 29 81.95 29 76.2 29 72.5 30.5 72.65 27.05 75.6 20.9 75.85 20.4 76.1 19.9 73.4 20.35 69.9 21.05 69.60625 21.1119140625 69.3 21.15 69.04453125 21.58125 68.75 22 65.1447265625 27.150390625 60.9 28.95 59.987890625 31.784375 59.65 34.15 58.85 34 57.5 34 56.35 34 53.6 34.5 50.65 35 50.5 35 50.1 36.9 48.75 42.9 47.75 47.45 47.75 47.85
L 47.75 48.5
Q 48.4 47.8 50.2 46.7 52.45 45.35 54.75 44.5 55.4 44.3 57.1 44.2 56.45 45.9 55.75 48.65 55.4734375 49.8158203125 55.2 51 54.8326171875 52.8447265625 54.5 54.75
L 55 54.75 57.1 54.1
Q 59.6 53.35 61.75 53 63.35 52.75 67.15 52.75 68.1 52.75 68.5 52.9
L 68.5 50
Q 68.8984375 48.3796875 69.35 46.55 69.8078125 44.9578125 70.3 43.2 70.55 43.1 70.8 43 74.35 41.5 75.95 41.5 77.627734375 41.5 79.35 41.65 80.2283203125 41.7349609375 81.1 41.85 Z"/>
</g>
</defs>

<g transform="matrix( 1, 0, 0, 1, 0,0) ">
<use xlink:href="#Layer0_0_FILL"/>
</g>
</svg>
