
<svg xmlns="http://www.w3.org/2000/svg" version="1.1" xmlns:xlink="http://www.w3.org/1999/xlink" preserveAspectRatio="none" x="0px" y="0px" width="69px" height="58px" viewBox="0 0 69 58">
<defs>
<g id="Layer0_0_FILL">
<path fill="#000000" stroke="none" d="
M 30.35 32.85
L 29.6 32.85
Q 28.1 33.75 28.1 34.8 28.1 39.05 28.7 43 29.05 45 29.45 46.5 30.25 49.1 31.35 50 32.9 50.7 33.6 48.55 34.05 46.25 34.05 46.15 34 45.25 33.95 44.5 33.65 40.75 33.3 39.6 33.05 37.3 32.75 36.2 32.3 34.2 30.35 32.85
M 44.25 33.35
Q 44.05 33.2 43.9 33.05 42.45 31.85 41.7 33.05 41.35 33.55 41.15 34.6 40.8 36.4 40.9 38.9 40.9 40.5 40.95 41.7 41 43.6 41.15 44.35 42.3 49.7 44.25 49.7 45.8 49.7 46.8 41.25 46.8 40.45 46.6 39.4 46.45 38.4 46.1 37.15 45.25 34.2 44.25 33.35 Z"/>

<path fill="#FFEB59" stroke="none" d="
M 33.3 25.4
L 34 26.1
Q 34.85 27 35.7 27.9 35.3 25.25 35.3 25.1 34.2 25.25 33.3 25.4
M 34.05 30.6
Q 33.9 30.35 33.75 30.2 34.55 31.4 35.25 32.5 35.35 32.5 35.45 32.5
L 35.4 32.45
Q 34.9 31.95 34.05 30.6
M 61.7 22.25
Q 61.45 19.85 61.15 18.7 59.5 12.35 58.95 11.3 56.85 7.2 51.15 4.45 47.9 3.3 41.45 3.2 33.9 3.1 27.3 4.75 21.65 6.15 17.7 8.6 18.5 10 18.5 10.6 18.5 10.65 18.5 10.75 18.5 10.8 18.5 10.9 18.45 10.95 18.45 11 18.15 12.35 17.25 12.35 16.95 12.35 15.6 10.05 13.2 11.95 11.65 14.35 12.45 14.5 13.15 14.7 14 15 14 15.75 14 16.15 13.45 16.8 13.35 16.9 13.25 17.05 13.25 17.85 12.25 18.1 11.05 17.8 10.1 17.55 8.9 20.65 8.9 24.45 8.9 26.5 8.05 27.9 7.65 28.5 5.35 31.25 4.55 31.6 4.45 32.3
L 4.4 32.35 4.45 32.4
Q 4.4 32.5 4.4 32.6 4.4 33.35 4.55 33.5 4.65 33.65 4.65 33.7 5.25 33.85 6.4 33.95 7.35 32.9 8.45 31.7 16.85 22.7 18.5 22.7 19.5 22.7 21 24.45 21.8 25.4 22.75 26.6
L 23.25 26.45
Q 23.3 24.55 22.25 20.85 21.15 17.05 21.15 15.4
L 21.25 14.2
Q 21.95 14.3 22.65 14.7 22.85 14.3 23.25 14.6 23.75 14.85 23.9 15.2 24 15.45 24.1 15.65 25.45 16.8 26.8 18.85 27.4 19.5 27.5 19.6 28.65 19.6 30.65 19.25 32.15 19 33.05 18.9 32.75 17.9 32.55 16.45 32.3 14.8 32.3 13.6 33.15 12.9 39.3 11.6 39.3 12.25 39.55 15.95 39.75 19.45 39.55 19.85 41.35 19.85 46.05 20.1
L 46.05 20.6
Q 46.05 21.2 45.8 25.6 45.1 25.6 43.3 25.1 41.5 24.6 40.8 24.6 40.8 25.55 41.3 27.75 41.8 30 41.8 30.6
L 38.25 30.6
Q 39.45 31.9 40.45 33 41.1 33 41.7 33.05 42.45 31.85 43.9 33.05 46.25 33 53.3 32.85 57.05 32.85 58.15 33.55 58.25 33.6 58.35 33.7 59.5 33.8 60.25 34.1 61.4 34 62.25 33.95 63.35 33.4 65.4 32.7 66.35 32.4 67.15 32.2 66.9 31.4 65.65 30.95 63.7 30.2 63.15 29.6 62.7 29.05 62.45 27.8 62.3 26.4 62.15 25.85 61.9 24.85 61.7 22.25
M 32.3 5.35
Q 33.15 5.85 33.3 6.05 33.55 6.4 33.55 7.25 33.55 9.35 31.6 10.65 29.95 11.7 25.25 13.1
L 22.25 13.1
Q 20.25 11.65 20.25 10.75 20.25 8.45 23.45 6.6 27.2 4.4 32.3 5.35 Z"/>

<path fill="#666666" stroke="none" d="
M 7 12.05
Q 7 8.55 4.4 10.8 1.75 13 1.75 16.25 1.75 16.3 1.75 17.35 2.05 18.35 3.25 18.35 4.9 18.35 5.95 16.2 6.6 16.5 7.55 16.8 8.55 17.1 10.1 17.55 11.05 17.8 12.25 18.1 13.25 17.85 13.25 17.05 13.35 16.9 13.45 16.8 14 16.15 14 15.75 14 15 13.15 14.7 12.45 14.5 11.65 14.35 10.45 14 9.15 13.6 8.8 13.5 8.45 13.45 7.65 13.05 6.95 12.85 7 12.4 7 12.05
M 16.5 2.5
Q 16.5 0.8 15.65 0.4 14.85 -0.45 12.4 0.55 8.75 2 8.75 3.9 8.75 4.15 8.8 4.3 8.75 4.5 8.75 4.7 8.75 5.15 9 5.55 9.45 6.35 10.5 6.35 11.8 6.35 13.1 5.75 14.6 8.45 15.6 10.05 16.95 12.35 17.25 12.35 18.15 12.35 18.45 11 18.45 10.95 18.5 10.9 18.5 10.8 18.5 10.75 18.5 10.65 18.5 10.6 18.5 10 17.7 8.6 17.5 8.2 17.25 7.8 15.9 5.8 15.75 5.5 15.45 4.85 15.2 4.35 16.5 3.2 16.5 2.5 Z"/>

<path fill="#FFE6CE" stroke="none" d="
M 62.25 33.95
Q 61.5 34.3 61.2 34.6 60.9 34.8 60.9 35 60.9 35.15 61.4 36.25 61.95 37.55 62 38.6 62.05 39.5 63.25 42.1 63.65 43.2 64.15 46.6 64.65 48.9 65.55 49.3 65.75 49.4 65.95 49.4 66.8 49.4 69.9 32.6 69.9 31.55 67.15 32.2 66.35 32.4 65.4 32.7 63.35 33.4 62.25 33.95
M 41.15 44.35
Q 41 43.6 40.95 41.7 36.1 43.6 33.95 44.5 34 45.25 34.05 46.15 34.05 46.25 33.6 48.55 32.9 50.7 31.35 50 30.25 49.1 29.45 46.5 27.8 47.3 26.65 47.8 23.1 49.45 20.35 50.15 19.6 50.45 18.85 50.75 18 51.1 17.3 51.4
L 17.3 51.3
Q 16.6 51.55 15.95 51.8 15.95 51.85 15.95 52 15.9 52.2 15.9 52.45 15.9 54.2 17.7 55.1 20 56.3 26.1 56.95
L 33.85 56.95
Q 41.45 56.75 48.05 55.05 53.05 53.75 54.05 52.65 54.25 52.35 54.25 52.1 54.25 51.5 53.85 51.3 53.5 49 53.1 46.3 52.2 39.95 51.85 37.15 49.95 38.1 46.6 39.4 46.8 40.45 46.8 41.25 45.8 49.7 44.25 49.7 42.3 49.7 41.15 44.35
M 39.55 39.9
Q 39.6 39.95 39.6 40.05 40 39.85 40.4 39.7 40.3 39.7 40.25 39.65 39.85 39.8 39.55 39.9 Z"/>

<path fill="#03B6DC" stroke="none" d="
M 41.15 34.6
Q 41.35 33.55 41.7 33.05 41.1 33 40.45 33 39.45 31.9 38.25 30.6 37.05 29.35 35.7 27.9 34.85 27 34 26.1
L 33.3 25.4 27.5 19.6
Q 27.4 19.5 26.8 18.85 25.45 16.8 24.1 15.65 24 15.45 23.9 15.2 23.75 14.85 23.25 14.6 22.85 14.3 22.65 14.7 21.95 14.3 21.25 14.2
L 21.15 15.4
Q 21.15 17.05 22.25 20.85 23.3 24.55 23.25 26.45
L 22.75 26.6
Q 21.8 25.4 21 24.45 19.5 22.7 18.5 22.7 16.85 22.7 8.45 31.7 7.35 32.9 6.4 33.95 0 40.9 0 42.4 0 42.9 0.1 43.25 3.75 42.1 11.25 41.35
L 11.4 41.7
Q 10.85 43 9.5 47.6 8.15 52.25 8.15 52.95 8.15 53.25 8.15 53.45 8.15 53.5 8.15 53.6 8.2 54.25 8.25 54.45
L 8.4 54.6
Q 8.7 54.7 9.5 54.7
L 9.6 54.7
Q 10.35 54.4 15.95 52 15.95 51.85 15.95 51.8 16.6 51.55 17.3 51.3
L 17.3 51.4
Q 18 51.1 18.85 50.75 19.6 50.45 20.35 50.15 23.1 49.45 26.65 47.8 27.8 47.3 29.45 46.5 29.05 45 28.7 43 28.1 39.05 28.1 34.8 28.1 33.75 29.6 32.85
L 30.35 32.85
Q 32.3 34.2 32.75 36.2 33.05 37.3 33.3 39.6 33.65 40.75 33.95 44.5 36.1 43.6 40.95 41.7 40.9 40.5 40.9 38.9 40.8 36.4 41.15 34.6
M 33.75 30.2
Q 33.9 30.35 34.05 30.6 34.9 31.95 35.4 32.45
L 35.45 32.5
Q 35.35 32.5 35.25 32.5 34.55 31.4 33.75 30.2
M 39.6 40.05
Q 39.6 39.95 39.55 39.9 39.85 39.8 40.25 39.65 40.3 39.7 40.4 39.7 40 39.85 39.6 40.05
M 58.15 33.55
Q 57.05 32.85 53.3 32.85 46.25 33 43.9 33.05 44.05 33.2 44.25 33.35 45.25 34.2 46.1 37.15 46.45 38.4 46.6 39.4 49.95 38.1 51.85 37.15 52.2 39.95 53.1 46.3 53.5 49 53.85 51.3 54.25 51.5 54.25 52.1 54.25 52.35 54.05 52.65 54.5 56.05 54.8 58.5 55.05 58.15 55.3 57.8 57.75 54.45 59.1 53.35 59.2 52.95 59.55 52.75 59.6 52.45 59.8 52.2 60.2 51.7 61.15 51.7 61.45 51.7 62.8 51.8 64.1 51.85 64.3 51.9
L 66.15 51.95
Q 65.9 50.85 65.55 49.3 64.65 48.9 64.15 46.6 63.65 43.2 63.25 42.1 62.05 39.5 62 38.6 61.95 37.55 61.4 36.25 60.9 35.15 60.9 35 60.9 34.8 61.2 34.6 60.9 34.35 60.55 34.2 60.4 34.15 60.25 34.1 59.5 33.8 58.35 33.7 58.25 33.6 58.15 33.55 Z"/>

<path fill="#FF0000" stroke="none" d="
M 46.05 20.6
L 46.05 20.1
Q 41.35 19.85 39.55 19.85 39.75 19.45 39.55 15.95 39.3 12.25 39.3 11.6 33.15 12.9 32.3 13.6 32.3 14.8 32.55 16.45 32.75 17.9 33.05 18.9 32.15 19 30.65 19.25 28.65 19.6 27.5 19.6
L 33.3 25.4
Q 34.2 25.25 35.3 25.1 35.3 25.25 35.7 27.9 37.05 29.35 38.25 30.6
L 41.8 30.6
Q 41.8 30 41.3 27.75 40.8 25.55 40.8 24.6 41.5 24.6 43.3 25.1 45.1 25.6 45.8 25.6 46.05 21.2 46.05 20.6 Z"/>

<path fill="#F9FFB0" stroke="none" d="
M 33.3 6.05
Q 33.15 5.85 32.3 5.35 27.2 4.4 23.45 6.6 20.25 8.45 20.25 10.75 20.25 11.65 22.25 13.1
L 25.25 13.1
Q 29.95 11.7 31.6 10.65 33.55 9.35 33.55 7.25 33.55 6.4 33.3 6.05 Z"/>
</g>
</defs>

<g transform="matrix( 1, 0, 0, 1, 0,0) ">
<use xlink:href="#Layer0_0_FILL"/>
</g>
</svg>
